<?xml version="1.0" standalone="no"?>
<!DOCTYPE svg PUBLIC "-//W3C//DTD SVG 20010904//EN"
 "http://www.w3.org/TR/2001/REC-SVG-20010904/DTD/svg10.dtd">
<svg version="1.0" xmlns="http://www.w3.org/2000/svg"
 width="94.000000pt" height="94.000000pt" viewBox="0 0 94.000000 94.000000"
 preserveAspectRatio="xMidYMid meet">
<metadata>
Created by potrace 1.11, written by Peter Selinger 2001-2013
</metadata>
<g transform="translate(0.000000,94.000000) scale(0.100000,-0.100000)"
fill="#000000" stroke="none">
<path d="M729 755 c-13 -25 -27 -45 -30 -45 -4 0 -10 -11 -13 -24 -5 -20 -34
-44 -41 -34 -46 69 -65 101 -65 107 0 11 -475 14 -512 3 l-28 -7 24 -46 c30
-59 35 -175 11 -213 -17 -25 -12 -72 6 -61 12 8 11 16 13 -169 1 -95 6 -161
12 -163 12 -4 146 121 138 130 -9 9 -10 107 -1 107 5 0 5 5 1 12 -11 18 -11
59 0 66 16 9 46 10 46 1 0 -5 11 -4 24 1 13 5 27 7 30 4 3 -2 4 -1 1 2 -2 4 1
12 8 20 38 43 41 48 38 90 -1 19 -8 21 -68 23 -72 2 -81 7 -79 49 1 26 3 27
62 27 65 0 97 16 109 56 4 11 15 19 26 19 11 0 18 -4 15 -8 -3 -5 22 -53 55
-107 59 -97 59 -98 42 -123 -10 -14 -22 -32 -28 -41 -5 -9 -13 -18 -16 -21 -4
-3 -66 -61 -138 -130 -73 -69 -147 -134 -164 -145 -18 -11 -33 -23 -35 -27 -2
-5 -8 -8 -13 -8 -5 0 -18 -9 -29 -20 l-20 -20 98 0 c86 0 101 3 127 23 29 22
134 128 243 245 51 54 61 61 72 47 7 -8 9 -15 6 -15 -4 0 -2 -6 4 -12 17 -21
100 -159 100 -168 0 -4 23 -10 50 -12 28 -1 50 1 50 5 0 5 4 6 9 3 5 -3 14 0
19 7 8 10 2 30 -23 78 -19 35 -53 101 -76 147 -22 45 -45 85 -50 88 -18 11 -8
34 52 124 66 101 67 97 -1 150 l-37 30 -24 -45z"/>
</g>
</svg>
